# Blender 4.1.1
# www.blender.org
mtllib barrotecaracol.mtl
o Circle
v 0.000000 0.502315 -1.000000
v -0.195090 0.502315 -0.980785
v -0.382683 0.502315 -0.923880
v -0.555570 0.502315 -0.831470
v -0.707107 0.502315 -0.707107
v -0.831470 0.502315 -0.555570
v -0.923880 0.502315 -0.382683
v 0.923880 0.502315 -0.382683
v 0.831470 0.502315 -0.555570
v 0.707107 0.502315 -0.707107
v 0.555570 0.502315 -0.831470
v 0.382683 0.502315 -0.923880
v 0.195090 0.502315 -0.980785
v -0.000000 0.502315 -0.813177
v -0.158643 0.502315 -0.797552
v -0.311189 0.502315 -0.751277
v -0.451777 0.502315 -0.676132
v -0.575003 0.502315 -0.575003
v -0.676132 0.502315 -0.451777
v -0.751277 0.502315 -0.311189
v 0.751277 0.502315 -0.311189
v 0.676132 0.502315 -0.451777
v 0.575003 0.502315 -0.575003
v 0.451777 0.502315 -0.676132
v 0.311189 0.502315 -0.751277
v 0.158643 0.502315 -0.797552
vn -0.0000 -1.0000 -0.0000
vt 0.236874 0.292915
vt 0.258870 0.394429
vt 0.188045 0.414152
vt 0.170158 0.331603
vt 0.201155 0.800641
vt 0.153085 0.882644
vt 0.102023 0.811157
vt 0.141112 0.744475
vt 0.201155 0.199359
vt 0.141112 0.255525
vt 0.236874 0.707085
vt 0.170158 0.668397
vt 0.153085 0.117356
vt 0.102023 0.188843
vt 0.258870 0.605571
vt 0.188045 0.585848
vt 0.094512 0.050058
vt 0.054393 0.134118
vt 0.266297 0.500000
vt 0.194084 0.500000
vt 0.027686 0.000052
vt 0.000052 0.093454
vt 0.094512 0.949942
vt 0.027686 0.999948
vt 0.000052 0.906546
vt 0.054393 0.865882
s 0
usemtl Material.001
f 3/1/1 2/2/1 15/3/1 16/4/1
f 11/5/1 10/6/1 23/7/1 24/8/1
f 4/9/1 3/1/1 16/4/1 17/10/1
f 12/11/1 11/5/1 24/8/1 25/12/1
f 5/13/1 4/9/1 17/10/1 18/14/1
f 13/15/1 12/11/1 25/12/1 26/16/1
f 6/17/1 5/13/1 18/14/1 19/18/1
f 1/19/1 13/15/1 26/16/1 14/20/1
f 7/21/1 6/17/1 19/18/1 20/22/1
f 9/23/1 8/24/1 21/25/1 22/26/1
f 2/2/1 1/19/1 14/20/1 15/3/1
f 10/6/1 9/23/1 22/26/1 23/7/1
