# Blender 4.1.1
# www.blender.org
mtllib nadada2.mtl
o Circle
v 0.000000 0.000000 -1.000000
v -0.195090 0.000000 -0.980785
v -0.382683 0.000000 -0.923880
v -0.555570 0.000000 -0.831470
v -0.707107 0.000000 -0.707107
v -0.831470 0.000000 -0.555570
v -0.923880 0.000000 -0.382683
v 0.923880 0.000000 -0.382683
v 0.831470 0.000000 -0.555570
v 0.707107 0.000000 -0.707107
v 0.555570 0.000000 -0.831470
v 0.382683 0.000000 -0.923880
v 0.195090 0.000000 -0.980785
v -0.000000 0.000000 -0.823024
v -0.160564 0.000000 -0.807210
v -0.314958 0.000000 -0.760375
v -0.457248 0.000000 -0.684320
v -0.581966 0.000000 -0.581966
v -0.684320 0.000000 -0.457248
v -0.760375 0.000000 -0.314958
v 0.760375 0.000000 -0.314958
v 0.684320 0.000000 -0.457248
v 0.581966 0.000000 -0.581966
v 0.457248 0.000000 -0.684320
v 0.314958 0.000000 -0.760375
v 0.160564 0.000000 -0.807210
vn -0.0000 -1.0000 -0.0000
vt 0.000000 0.000000
s 0
usemtl Material.001
f 7/1/1 6/1/1 19/1/1 20/1/1
f 9/1/1 8/1/1 21/1/1 22/1/1
f 2/1/1 1/1/1 14/1/1 15/1/1
f 10/1/1 9/1/1 22/1/1 23/1/1
f 3/1/1 2/1/1 15/1/1 16/1/1
f 11/1/1 10/1/1 23/1/1 24/1/1
f 4/1/1 3/1/1 16/1/1 17/1/1
f 12/1/1 11/1/1 24/1/1 25/1/1
f 5/1/1 4/1/1 17/1/1 18/1/1
f 13/1/1 12/1/1 25/1/1 26/1/1
f 6/1/1 5/1/1 18/1/1 19/1/1
f 1/1/1 13/1/1 26/1/1 14/1/1
