# Blender 4.1.1
# www.blender.org
mtllib nadada3.mtl
o Circle
v 0.000000 0.000000 -1.000000
v -0.195090 0.000000 -0.980785
v -0.382683 0.000000 -0.923880
v -0.555570 0.000000 -0.831470
v -0.707107 0.000000 -0.707107
v -0.831470 0.000000 -0.555570
v -0.923880 0.000000 -0.382683
v 0.923880 0.000000 -0.382683
v 0.831470 0.000000 -0.555570
v 0.707107 0.000000 -0.707107
v 0.555570 0.000000 -0.831470
v 0.382683 0.000000 -0.923880
v 0.195090 0.000000 -0.980785
v -0.000000 0.000000 -0.823024
v -0.160564 0.000000 -0.807210
v -0.314958 0.000000 -0.760375
v -0.457248 0.000000 -0.684320
v -0.581966 0.000000 -0.581966
v -0.684320 0.000000 -0.457248
v -0.760375 0.000000 -0.314958
v 0.760375 0.000000 -0.314958
v 0.684320 0.000000 -0.457248
v 0.581966 0.000000 -0.581966
v 0.457248 0.000000 -0.684320
v 0.314958 0.000000 -0.760375
v 0.160564 0.000000 -0.807210
v 0.000000 0.022784 -1.000000
v -0.195090 0.022784 -0.980785
v -0.382683 0.022784 -0.923880
v -0.555570 0.022784 -0.831470
v -0.707107 0.022784 -0.707107
v -0.831470 0.022784 -0.555570
v -0.923880 0.022784 -0.382683
v 0.923880 0.022784 -0.382683
v 0.831470 0.022784 -0.555570
v 0.707107 0.022784 -0.707107
v 0.555570 0.022784 -0.831470
v 0.382683 0.022784 -0.923880
v 0.195090 0.022784 -0.980785
v -0.000000 0.022784 -0.823024
v -0.160564 0.022784 -0.807210
v -0.314958 0.022784 -0.760375
v -0.457248 0.022784 -0.684320
v -0.581966 0.022784 -0.581966
v -0.684320 0.022784 -0.457248
v -0.760375 0.022784 -0.314958
v 0.760375 0.022784 -0.314958
v 0.684320 0.022784 -0.457248
v 0.581966 0.022784 -0.581966
v 0.457248 0.022784 -0.684320
v 0.314958 0.022784 -0.760375
v 0.160564 0.022784 -0.807210
vn -0.0000 1.0000 -0.0000
vn -0.0000 -1.0000 -0.0000
vn 0.2903 -0.0000 -0.9569
vn 0.0980 -0.0000 0.9952
vn -0.6344 -0.0000 -0.7730
vn -0.6344 -0.0000 0.7730
vn 0.0980 -0.0000 -0.9952
vn 0.2903 -0.0000 0.9569
vn -0.7730 -0.0000 -0.6344
vn -0.4714 -0.0000 0.8819
vn 0.4714 -0.0000 0.8819
vn -0.8819 -0.0000 -0.4714
vn -0.2903 -0.0000 0.9569
vn 0.3827 -0.0000 -0.9239
vn 0.6344 -0.0000 0.7730
vn 0.8819 -0.0000 -0.4714
vn -0.0980 -0.0000 0.9952
vn -0.3827 -0.0000 -0.9239
vn 0.7730 -0.0000 0.6344
vn 0.7730 -0.0000 -0.6344
vn -0.0980 -0.0000 -0.9952
vn 0.8819 -0.0000 0.4714
vn 0.6344 -0.0000 -0.7730
vn -0.2903 -0.0000 -0.9569
vn -0.8819 -0.0000 0.4714
vn 0.4714 -0.0000 -0.8819
vn -0.4714 -0.0000 -0.8819
vn -0.7730 -0.0000 0.6344
vt 0.000000 0.000000
vt 0.026229 0.000051
vt 0.093055 0.050058
vt 0.055051 0.129687
vt 0.000051 0.088530
vt 0.093055 0.949942
vt 0.026229 0.999949
vt 0.000051 0.911470
vt 0.055051 0.870313
vt 0.257413 0.394429
vt 0.264840 0.500000
vt 0.196434 0.500000
vt 0.190321 0.413112
vt 0.151628 0.882644
vt 0.103258 0.814925
vt 0.235417 0.292914
vt 0.172218 0.329564
vt 0.199698 0.800641
vt 0.142820 0.747435
vt 0.199698 0.199358
vt 0.142820 0.252565
vt 0.235417 0.707085
vt 0.172218 0.670436
vt 0.151628 0.117356
vt 0.103258 0.185075
vt 0.257413 0.605571
vt 0.190321 0.586888
s 0
usemtl Material.001
f 7/1/1 20/1/1 19/1/1 6/1/1
f 9/1/1 22/1/1 21/1/1 8/1/1
f 2/1/1 15/1/1 14/1/1 1/1/1
f 10/1/1 23/1/1 22/1/1 9/1/1
f 3/1/1 16/1/1 15/1/1 2/1/1
f 11/1/1 24/1/1 23/1/1 10/1/1
f 4/1/1 17/1/1 16/1/1 3/1/1
f 12/1/1 25/1/1 24/1/1 11/1/1
f 5/1/1 18/1/1 17/1/1 4/1/1
f 13/1/1 26/1/1 25/1/1 12/1/1
f 6/1/1 19/1/1 18/1/1 5/1/1
f 1/1/1 14/1/1 26/1/1 13/1/1
f 33/2/2 32/3/2 45/4/2 46/5/2
f 35/6/2 34/7/2 47/8/2 48/9/2
f 28/10/2 27/11/2 40/12/2 41/13/2
f 36/14/2 35/6/2 48/9/2 49/15/2
f 29/16/2 28/10/2 41/13/2 42/17/2
f 37/18/2 36/14/2 49/15/2 50/19/2
f 30/20/2 29/16/2 42/17/2 43/21/2
f 38/22/2 37/18/2 50/19/2 51/23/2
f 31/24/2 30/20/2 43/21/2 44/25/2
f 39/26/2 38/22/2 51/23/2 52/27/2
f 32/3/2 31/24/2 44/25/2 45/4/2
f 27/11/2 39/26/2 52/27/2 40/12/2
f 25/1/3 26/1/3 52/1/3 51/1/3
f 2/1/4 1/1/4 27/1/4 28/1/4
f 17/1/5 18/1/5 44/1/5 43/1/5
f 11/1/6 10/1/6 36/1/6 37/1/6
f 26/1/7 14/1/7 40/1/7 52/1/7
f 3/1/8 2/1/8 28/1/8 29/1/8
f 18/1/9 19/1/9 45/1/9 44/1/9
f 12/1/10 11/1/10 37/1/10 38/1/10
f 4/1/11 3/1/11 29/1/11 30/1/11
f 19/1/12 20/1/12 46/1/12 45/1/12
f 13/1/13 12/1/13 38/1/13 39/1/13
f 20/1/14 7/1/14 33/1/14 46/1/14
f 5/1/15 4/1/15 30/1/15 31/1/15
f 21/1/16 22/1/16 48/1/16 47/1/16
f 1/1/17 13/1/17 39/1/17 27/1/17
f 8/1/18 21/1/18 47/1/18 34/1/18
f 6/1/19 5/1/19 31/1/19 32/1/19
f 22/1/20 23/1/20 49/1/20 48/1/20
f 14/1/21 15/1/21 41/1/21 40/1/21
f 7/1/22 6/1/22 32/1/22 33/1/22
f 23/1/23 24/1/23 50/1/23 49/1/23
f 15/1/24 16/1/24 42/1/24 41/1/24
f 9/1/25 8/1/25 34/1/25 35/1/25
f 24/1/26 25/1/26 51/1/26 50/1/26
f 16/1/27 17/1/27 43/1/27 42/1/27
f 10/1/28 9/1/28 35/1/28 36/1/28
