# Blender 4.1.1
# www.blender.org
mtllib staminabar.mtl
o Circle.001
v 0.625503 0.000000 -0.417948
v 0.531947 0.000000 -0.531947
v 0.417948 0.000000 -0.625503
v 0.287888 0.000000 -0.695022
v 0.146764 0.000000 -0.737832
v 0.000000 0.000000 -0.752287
v -0.146764 0.000000 -0.737832
v -0.287888 0.000000 -0.695022
v -0.417948 0.000000 -0.625503
v -0.531947 0.000000 -0.531947
v -0.625503 0.000000 -0.417948
v 0.708687 0.000000 -0.473530
v 0.602689 0.000000 -0.602689
v 0.473530 0.000000 -0.708687
v 0.326173 0.000000 -0.787451
v 0.166282 0.000000 -0.835954
v 0.000000 0.000000 -0.852331
v -0.166282 0.000000 -0.835954
v -0.326173 0.000000 -0.787451
v -0.473530 0.000000 -0.708687
v -0.602689 0.000000 -0.602689
v -0.708687 0.000000 -0.473530
vn -0.0000 1.0000 -0.0000
vt 0.000000 0.000000
s 0
usemtl Material.003
f 9/1/1 8/1/1 19/1/1 20/1/1
f 10/1/1 9/1/1 20/1/1 21/1/1
f 11/1/1 10/1/1 21/1/1 22/1/1
f 2/1/1 1/1/1 12/1/1 13/1/1
f 3/1/1 2/1/1 13/1/1 14/1/1
f 4/1/1 3/1/1 14/1/1 15/1/1
f 5/1/1 4/1/1 15/1/1 16/1/1
f 6/1/1 5/1/1 16/1/1 17/1/1
f 7/1/1 6/1/1 17/1/1 18/1/1
f 8/1/1 7/1/1 18/1/1 19/1/1
